<svg width="42" height="42" viewBox="0 0 42 42" fill="none" xmlns="http://www.w3.org/2000/svg">
<path d="M20.4176 4.71516C20.4176 5.01867 20.434 5.3632 20.5078 5.74875C22.1976 5.72414 24.0351 5.77336 25.5445 5.92102C25.5117 5.56828 25.5117 5.24016 25.5609 4.92844C23.6988 4.73156 22.132 4.65773 20.4176 4.71516ZM18.941 4.79719C16.439 4.98586 14.1996 5.43703 12.4687 6.04406C12.5918 6.25734 12.7558 6.51164 12.9281 6.79875C14.4129 6.31477 16.5785 5.96203 19.023 5.81437C18.9656 5.43703 18.941 5.0925 18.941 4.79719ZM27.0211 5.14172C26.9801 5.40422 26.9883 5.72414 27.0703 6.11789C28.4894 6.34758 29.6133 6.6593 30.3351 7.02844C30.8437 6.84797 31.3769 6.74133 31.8937 6.69211C30.3597 5.86359 28.5633 5.41242 27.0211 5.14172ZM11.0906 6.61828C10.4836 6.9218 9.98318 7.24172 9.62224 7.55344C9.06443 8.04563 8.86755 8.47383 8.86755 8.85117C9.10544 10.0324 10.2293 10.6066 11.1644 11.0414C11.4597 10.4426 11.8125 9.87656 12.2554 9.37617C11.4023 9.03984 10.9511 8.64609 10.9429 8.24414C10.9429 7.96359 11.1562 7.68469 11.5664 7.41398C11.3941 7.13508 11.2301 6.87258 11.0906 6.61828ZM31.098 8.33437C30.8191 8.78555 30.007 9.20391 28.7683 9.55664C28.9734 10.2621 29.039 10.9512 29.0636 11.6402C30.3597 11.2301 31.7789 10.7133 32.7879 9.84375C33.2308 9.39258 33.6656 8.85117 33.4933 8.25234C32.7058 8.07844 31.8609 8.12766 31.098 8.33437ZM14.3965 9.46641C13.3136 10.1473 12.6 11.2383 12.1324 12.5672C12.2062 13.773 12.2636 15.4301 13.1988 16.2996C13.5597 13.691 14.9461 11.0332 16.4472 9.61406C15.7746 8.97422 15.0937 9.03164 14.3965 9.46641ZM27.3164 9.90117C25.848 10.1883 24.1008 10.377 22.2551 10.4508C21.7136 11.468 21.689 11.8863 21.5742 12.6984C23.7644 12.6574 25.8152 12.4113 27.5789 12.0176C27.5625 11.2793 27.5543 10.5738 27.3164 9.90117ZM17.7843 10.3934C17.0297 11.0168 16.4472 11.6813 16.0043 12.3621C17.2676 12.5508 18.6375 12.6738 20.0812 12.7066C20.2043 11.9191 20.2617 11.3285 20.6062 10.4836C19.6465 10.4836 18.6949 10.4508 17.7843 10.3934ZM7.91107 10.4016C7.0604 12.2309 9.007 13.4039 10.2293 14.0109C10.3277 13.4777 10.459 12.9363 10.623 12.4195C9.55661 11.8945 8.54763 11.3203 7.91107 10.4016ZM34.0101 10.7215C33.2308 11.4516 32.2054 12.0258 31.3851 12.3785C31.623 13.1988 31.6804 14.0438 31.4672 14.8148C32.4187 14.4375 33.1898 14.0109 33.7148 13.568C34.3547 13.043 34.6172 12.5426 34.6336 12.075C34.65 11.6566 34.4613 11.2137 34.0101 10.7215ZM29.9988 12.8953C28.3992 13.4203 26.4961 13.8059 24.4125 14.0109C23.7398 14.5934 23.7316 15.4957 23.8218 16.2422C25.8152 16.1438 27.6609 15.8895 29.2359 15.5039C30.0726 14.5852 30.3023 13.9863 29.9988 12.8953ZM7.03989 13.5023C5.69212 15.9387 8.15388 17.2594 9.85193 17.9895C9.86833 17.202 9.90935 16.3734 9.99958 15.5449C8.85935 14.9461 7.81755 14.3801 7.03989 13.5023ZM35.6672 13.5516C35.1504 14.3637 34.4531 14.9297 33.6984 15.3727C33.8707 15.9797 33.8871 16.5539 33.7394 17.1035C34.691 16.5375 35.9133 15.5039 35.9215 14.4293C35.9215 14.1422 35.8394 13.8551 35.6672 13.5516ZM15.2906 13.7484C15.0609 14.3391 14.9051 14.9297 14.7984 15.5367C15.2168 15.627 15.6515 15.709 16.1027 15.791C16.1355 15.0773 16.3242 14.4785 16.7015 13.9535C16.2176 13.8961 15.75 13.8305 15.2906 13.7484ZM18.5554 14.1176C17.9648 14.6426 17.489 15.3152 17.5793 16.0043C19.2937 16.2012 20.7621 16.2914 22.3371 16.2832C22.2879 15.4957 22.2961 14.8148 22.5504 14.1504C21.2133 14.2078 19.7941 14.1914 18.5554 14.1176ZM5.23275 15.9305C4.80618 16.759 5.14661 17.7516 5.58466 18.3422C5.69458 18.0141 5.82173 17.6203 5.99236 17.1691C5.66013 16.7836 5.40009 16.3734 5.23275 15.9305ZM32.3695 16.0453C30.5894 16.7672 28.4976 17.2266 26.8324 17.4563C26.3156 18.0059 26.5289 18.7688 26.6355 19.3758C28.6453 19.0559 30.4336 18.5801 31.8937 17.9977C32.1234 17.3742 32.4926 16.6523 32.3695 16.0453ZM11.4105 16.2914C11.2711 17.9977 11.3203 19.7203 11.3367 21.1148C11.7386 22.7719 13.2644 21.6973 13.2644 21.4758C13.2398 20.475 13.1168 19.2527 13.125 17.9238C12.2883 17.4891 11.7551 17.0051 11.4105 16.2914ZM36.2824 16.9805C36.2086 17.0625 36.1347 17.1363 36.0527 17.2102C36.1676 18.0715 36.1922 19.0477 36.1676 19.8352C36.5531 19.3758 36.7418 18.9246 36.7664 18.4652C36.791 17.9895 36.6433 17.4973 36.2824 16.9805ZM14.6261 17.0133C14.5851 17.8008 14.6015 18.5801 14.6426 19.3348C15.5121 19.4824 16.439 19.6055 17.3988 19.6875C17.2265 18.9 17.2183 18.1617 17.5629 17.4891C16.5375 17.3742 15.5613 17.2102 14.6261 17.0133ZM25.1097 17.6367C23.0179 17.7762 21.2215 17.7926 19.3101 17.6613C18.5636 18.2273 18.7441 19.1543 18.9902 19.7941C21.0738 19.8844 23.2394 19.7941 25.1672 19.5727C25.0605 18.8836 24.9539 18.2684 25.1097 17.6367ZM7.18673 18.2191C7.02841 18.6867 6.90618 19.0887 6.75443 19.4824C7.84544 20.2371 8.76911 20.7375 9.86013 21.1887C9.85193 20.6965 9.84372 20.1551 9.83552 19.5809C8.81833 19.1871 7.92747 18.7359 7.18673 18.2191ZM34.6746 18.2684C33.3211 19.0723 31.9429 19.6055 30.5484 20.0156C30.4336 20.9344 30.1465 21.8203 30.4582 22.6242C31.8035 22.2961 33.1406 21.8531 34.3054 21.2379C34.7074 20.3109 34.7238 19.0969 34.6746 18.2684ZM37.8164 20.2125C37.923 20.6062 37.964 21.0246 37.9558 21.443C38.5054 21.1805 39.0797 21.1313 39.6047 21.3445C39.6047 20.8277 39.539 20.3109 39.4078 19.8023C38.9812 18.6457 37.6277 19.3758 37.8164 20.2125ZM4.42884 19.2609C4.15732 19.7039 4.02853 20.1387 4.02853 20.5734C4.25083 21.9844 5.0129 22.7555 6.02271 23.4691C5.94724 22.6406 6.17857 21.8203 6.67157 21.2215C5.79138 20.6227 5.02193 20.0402 4.42884 19.2609ZM28.9406 20.434C27.464 20.7703 25.8562 21.0246 24.1418 21.1641C23.5347 21.7793 23.5101 22.6734 23.789 23.4281C25.6511 23.3871 27.3984 23.2066 28.9734 22.9277C28.8258 22.1074 28.8422 21.1641 28.9406 20.434ZM14.7164 20.8441C14.7574 21.4266 14.7082 22.1074 14.3883 22.5586C14.8066 22.6488 15.2414 22.7391 15.6843 22.8211C15.5941 22.173 15.5859 21.566 15.8074 21.0082C15.4383 20.959 15.0691 20.9016 14.7164 20.8441ZM17.3988 21.1723C16.923 21.7055 17.1199 22.5094 17.2511 23.0672C19.0312 23.2887 20.598 23.4117 22.2469 23.4363C22.0992 22.6816 22.1156 21.9516 22.3453 21.2707C20.6965 21.3363 18.8918 21.2953 17.3988 21.1723ZM36.7008 21.3855C35.7902 22.1402 34.6664 22.7555 33.7476 23.1328C33.5672 23.707 33.7148 24.232 33.8461 24.7406C35.0191 24.2402 35.9789 23.6742 36.6926 23.0836C36.6515 22.5094 36.8074 21.9023 36.7008 21.3855ZM7.9931 21.9598C7.23267 22.6488 7.54029 23.8137 7.77161 24.4781C8.91677 25.0195 10.2129 25.4543 11.3121 25.7578C11.1152 24.8719 11.1234 24.068 11.55 23.3543C10.2539 22.9277 9.09724 22.5094 7.9931 21.9598ZM38.8254 22.6816C37.1765 23.8629 36.5367 25.5527 35.2078 27.0047C35.4293 27.5789 35.7164 28.0793 35.9625 28.5961C37.6277 26.9062 38.9238 24.9949 39.4078 23.018C39.2519 22.8375 39.0386 22.6324 38.8254 22.6816ZM32.189 23.6824C30.491 24.1992 28.5222 24.5684 26.373 24.7652C26.0531 25.3477 26.332 26.0859 26.5125 26.6109C28.7355 26.3238 30.7535 25.8563 32.4597 25.2738C32.3121 24.716 32.1808 24.2156 32.189 23.6824ZM13.084 23.7809C12.3457 24.5191 12.764 25.5855 13.0593 26.168C14.5113 26.4715 16.0945 26.693 17.7679 26.8242C17.5383 26.0777 17.5218 25.2984 17.8008 24.6258C16.1355 24.4289 14.5523 24.1418 13.084 23.7809ZM19.4742 24.7898C18.8261 25.3559 19.0722 26.2992 19.425 26.9227C21.2871 26.9883 23.2968 26.9309 25.0113 26.775C24.8144 26.1434 24.6832 25.4789 24.7734 24.8719C22.8375 24.9375 21.2051 24.9211 19.4742 24.7898ZM4.22458 29.4492C4.26232 30.0809 4.51415 30.7207 4.79634 31.2129C6.4263 29.7445 8.2113 29.1293 10.139 29.5559C10.2129 28.9898 10.5164 28.4156 10.8609 28.0301C8.54763 27.423 5.86603 28.0547 4.22458 29.4492ZM33.9855 28.2105C33.0996 29.0145 32.107 29.7691 31.0652 30.4418C31.3441 30.9258 31.6886 31.4016 31.9183 31.8527C32.9437 31.1883 33.9199 30.4582 34.8222 29.6625C34.6418 29.3016 34.1578 28.0711 33.9855 28.2105ZM12.4769 28.5879C11.9519 28.9734 11.5664 29.4246 11.591 30.0234C13.1086 30.6387 14.6343 31.6148 16.2093 32.5828C16.316 32.0906 16.4965 31.4262 16.7261 30.975C15.3726 30.1301 13.9699 29.2277 12.4769 28.5879ZM3.01954 30.8766C2.47075 31.7953 2.2263 32.9109 2.52407 34.0348C2.68157 34.6254 2.98427 35.1996 3.43052 35.741C3.68892 35.1504 3.99243 34.7156 4.50021 34.4367C4.15322 33.9199 3.97849 33.3047 4.05232 32.7305C3.5872 32.1727 3.24103 31.5246 3.01954 30.8766ZM29.8019 31.2129C28.2105 32.1152 26.5699 32.8289 25.0605 33.2555C24.9129 33.6902 24.8636 34.2562 25.0195 34.9699C26.8406 34.5105 28.7847 33.6984 30.6551 32.6238C30.3844 32.0988 30.0808 31.6805 29.8019 31.2129ZM17.973 31.7379C17.7187 32.1973 17.5547 32.6977 17.6941 33.477C19.5316 34.527 21.4758 35.3637 23.5676 35.216C23.4527 34.6336 23.4281 34.084 23.4855 33.5754C21.6808 33.7066 19.8843 32.8699 17.973 31.7379ZM5.04161 37.1602C5.41896 37.4227 5.93493 37.316 6.18841 36.9387C6.44189 36.5531 6.33443 36.0445 5.9497 35.7902C4.97927 35.1832 4.41079 36.7254 5.04161 37.1602Z" fill="black"/>
</svg>
