<svg width="42" height="42" viewBox="0 0 42 42" fill="none" xmlns="http://www.w3.org/2000/svg">
<path d="M17.4967 1.59631L2.43559 9.87163H5.50151L16.4518 3.85496L15.1541 9.87163H16.6643L17.6146 5.46647L18.7374 9.87154H20.2611L18.6658 3.61305L35.3133 9.87163H39.509L17.4967 1.59631ZM2.05078 11.3482V13.8091H39.9492V11.3482H2.05078ZM4.67578 15.2857V17.7466H9.76172V15.2857H4.67578ZM16.4883 15.2857V19.0591H18.9492V15.2857H16.4883ZM20.4258 15.2857V19.0591H22.0068L22.8867 18.1792V15.2857H20.4258ZM36.0117 15.2857V26.9101C36.2469 26.8176 36.4973 26.7701 36.75 26.7701C37.0097 26.7701 37.2586 26.8201 37.4883 26.9101V15.2857H36.0117ZM16.4883 20.5357V40.3873H18.9492V20.5357H16.4883ZM36.75 28.2466C36.4241 28.2466 36.1758 28.4949 36.1758 28.8208C36.1758 29.1468 36.4241 29.3951 36.75 29.3951C37.0759 29.3951 37.3242 29.1468 37.3242 28.8208C37.3242 28.4949 37.0759 28.2466 36.75 28.2466ZM35.0771 29.9992L33.7301 32.0201H35.5044L36.3037 30.8213C35.8018 30.7078 35.3671 30.4079 35.0771 29.9992ZM38.4229 29.9992C38.1329 30.4078 37.6982 30.7078 37.1963 30.8213L37.9956 32.0201H39.7699L38.4229 29.9992ZM33.5508 33.4966V35.9576H39.9492V33.4966H33.5508ZM15.0117 35.5064L10.057 39.2224L10.943 40.4037L15.0117 37.3521V35.5064ZM20.4258 35.5064V37.3521L24.4945 40.4037L25.3805 39.2224L20.4258 35.5064Z" fill="black"/>
</svg>
