<svg width="42" height="42" viewBox="0 0 42 42" fill="none" xmlns="http://www.w3.org/2000/svg">
<path d="M21.6563 2.05078C18.7935 2.05078 16.4884 4.35586 16.4884 7.21875C16.4884 10.0816 18.7935 12.3867 21.6563 12.3867C24.5192 12.3867 26.8243 10.0816 26.8243 7.21875C26.8243 4.35586 24.5192 2.05078 21.6563 2.05078ZM21.6563 4.51172C23.1411 4.51172 24.3634 5.73234 24.3634 7.21875C24.3634 8.70352 23.1411 9.92578 21.6563 9.92578C20.1716 9.92578 18.9493 8.70352 18.9493 7.21875C18.9493 5.73234 20.1716 4.51172 21.6563 4.51172ZM21.6563 5.98828C20.9673 5.98828 20.4259 6.53051 20.4259 7.21875C20.4259 7.90699 20.9673 8.44922 21.6563 8.44922C22.3454 8.44922 22.8868 7.90699 22.8868 7.21875C22.8868 6.53051 22.3454 5.98828 21.6563 5.98828ZM17.9403 12.723C17.6368 13.4695 17.161 14.1586 16.595 14.823C15.6352 15.9387 14.413 17.0133 13.2153 18.2273C10.8364 20.6391 8.58876 23.4938 8.6872 28.0711C8.73642 30.7699 10.4263 33.6164 12.8708 35.7738C15.3153 37.9313 18.4817 39.3668 21.2216 39.3996C23.5923 39.4324 26.3075 38.7926 28.3665 37.3406C30.4337 35.8887 31.8692 33.6902 31.861 30.3188C31.861 28.9406 30.9997 26.7586 30.6224 24.7898C30.4337 23.8055 30.3517 22.8293 30.7126 21.9352C31.0243 21.1395 31.7544 20.5242 32.7716 20.2371C33.0177 19.6383 32.9356 19.3266 32.7552 19.0969C32.5501 18.8426 32.0497 18.6129 31.4181 18.6211C30.7946 18.6293 30.0974 18.859 29.5888 19.2855C29.0884 19.7203 28.7356 20.3355 28.7356 21.3035C28.7438 23.5922 28.4403 25.7906 27.6692 27.6199C26.8899 29.4492 25.5856 30.9258 23.6825 31.5574C22.1485 32.0578 20.4013 31.6805 18.9165 30.8848C17.4317 30.0809 16.1602 28.8258 15.7255 27.2672C15.2415 25.5035 15.6927 23.7234 16.554 22.0664C17.4153 20.4094 18.695 18.8344 20.0239 17.366C21.2626 15.9961 22.5341 14.7082 23.5431 13.5844C22.9442 13.7648 22.3126 13.8633 21.6563 13.8633C20.2782 13.8633 18.9985 13.4449 17.9403 12.723Z" fill="black"/>
</svg>
