<svg width="42" height="34" viewBox="0 0 42 34" fill="none" xmlns="http://www.w3.org/2000/svg">
<g clip-path="url(#clip0_35_137)">
<path d="M15.75 2.1C15.75 1.54305 15.9712 1.0089 16.3651 0.615076C16.7589 0.221249 17.293 0 17.85 0C18.407 0 18.9411 0.221249 19.3349 0.615076C19.7287 1.0089 19.95 1.54305 19.95 2.1C19.95 2.65695 19.7287 3.1911 19.3349 3.58492C18.9411 3.97875 18.407 4.2 17.85 4.2C17.293 4.2 16.7589 3.97875 16.3651 3.58492C15.9712 3.1911 15.75 2.65695 15.75 2.1ZM12.6 3.15C13.157 3.15 13.6911 3.37125 14.0849 3.76508C14.4787 4.1589 14.7 4.69305 14.7 5.25C14.7 5.80695 14.4787 6.3411 14.0849 6.73492C13.6911 7.12875 13.157 7.35 12.6 7.35C12.043 7.35 11.5089 7.12875 11.1151 6.73492C10.7212 6.3411 10.5 5.80695 10.5 5.25C10.5 4.69305 10.7212 4.1589 11.1151 3.76508C11.5089 3.37125 12.043 3.15 12.6 3.15ZM10.5 8.4C11.6616 8.4 12.6 9.33844 12.6 10.5H13.125C13.9978 10.5 14.7 11.2022 14.7 12.075V13.125C14.7 13.2366 14.6869 13.3481 14.6672 13.4597C18.3947 15.0675 21 18.7819 21 23.1C21 28.9012 16.3012 33.6 10.5 33.6C4.69875 33.6 0 28.9012 0 23.1C0 18.7819 2.60531 15.0675 6.33281 13.4597C6.30656 13.3547 6.3 13.2431 6.3 13.125V12.075C6.3 11.2022 7.00219 10.5 7.875 10.5H8.4C8.4 9.33844 9.33844 8.4 10.5 8.4ZM10.5 29.4C11.3273 29.4 12.1466 29.237 12.9109 28.9204C13.6753 28.6038 14.3698 28.1398 14.9548 27.5548C15.5398 26.9698 16.0038 26.2753 16.3204 25.5109C16.637 24.7466 16.8 23.9273 16.8 23.1C16.8 22.2727 16.637 21.4534 16.3204 20.6891C16.0038 19.9247 15.5398 19.2302 14.9548 18.6452C14.3698 18.0602 13.6753 17.5962 12.9109 17.2796C12.1466 16.963 11.3273 16.8 10.5 16.8C9.67267 16.8 8.85345 16.963 8.08909 17.2796C7.32474 17.5962 6.63024 18.0602 6.04523 18.6452C5.46022 19.2302 4.99616 19.9247 4.67956 20.6891C4.36295 21.4534 4.2 22.2727 4.2 23.1C4.2 23.9273 4.36295 24.7466 4.67956 25.5109C4.99616 26.2753 5.46022 26.9698 6.04523 27.5548C6.63024 28.1398 7.32474 28.6038 8.08909 28.9204C8.85345 29.237 9.67267 29.4 10.5 29.4ZM23.1 23.1C23.1 21.4003 22.7653 19.7859 22.155 18.3028C23.2641 16.1437 25.095 14.4244 27.3328 13.4531C27.3066 13.3481 27.3 13.2366 27.3 13.1184V12.075C27.3 11.2022 28.0022 10.5 28.875 10.5H29.4C29.4 9.33844 30.3384 8.4 31.5 8.4C32.6616 8.4 33.6 9.33844 33.6 10.5H34.125C34.9978 10.5 35.7 11.2022 35.7 12.075V13.125C35.7 13.2366 35.6869 13.3481 35.6672 13.4597C39.3947 15.0675 42 18.7819 42 23.1C42 28.9012 37.3012 33.6 31.5 33.6C27.4312 33.6 23.9006 31.2834 22.155 27.8972C22.7653 26.4206 23.1 24.7997 23.1 23.1ZM37.8 23.1C37.8 21.4291 37.1363 19.8267 35.9548 18.6452C34.7733 17.4637 33.1709 16.8 31.5 16.8C29.8291 16.8 28.2267 17.4637 27.0452 18.6452C25.8637 19.8267 25.2 21.4291 25.2 23.1C25.2 24.7709 25.8637 26.3733 27.0452 27.5548C28.2267 28.7363 29.8291 29.4 31.5 29.4C33.1709 29.4 34.7733 28.7363 35.9548 27.5548C37.1363 26.3733 37.8 24.7709 37.8 23.1ZM24.15 0C24.707 0 25.2411 0.221249 25.6349 0.615076C26.0287 1.0089 26.25 1.54305 26.25 2.1C26.25 2.65695 26.0287 3.1911 25.6349 3.58492C25.2411 3.97875 24.707 4.2 24.15 4.2C23.593 4.2 23.0589 3.97875 22.6651 3.58492C22.2712 3.1911 22.05 2.65695 22.05 2.1C22.05 1.54305 22.2712 1.0089 22.6651 0.615076C23.0589 0.221249 23.593 0 24.15 0ZM29.4 3.15C29.957 3.15 30.4911 3.37125 30.8849 3.76508C31.2787 4.1589 31.5 4.69305 31.5 5.25C31.5 5.80695 31.2787 6.3411 30.8849 6.73492C30.4911 7.12875 29.957 7.35 29.4 7.35C28.843 7.35 28.3089 7.12875 27.9151 6.73492C27.5212 6.3411 27.3 5.80695 27.3 5.25C27.3 4.69305 27.5212 4.1589 27.9151 3.76508C28.3089 3.37125 28.843 3.15 29.4 3.15Z" fill="black"/>
</g>
<defs>
<clipPath id="clip0_35_137">
<rect width="42" height="33.6" fill="white"/>
</clipPath>
</defs>
</svg>
