<svg width="42" height="42" viewBox="0 0 42 42" fill="none" xmlns="http://www.w3.org/2000/svg">
<path d="M35 35C32.5675 35 30.135 34.1775 28 32.6725C23.73 35.665 18.27 35.665 14 32.6725C11.865 34.1775 9.4325 35 7 35H3.5V38.5H7C9.3975 38.5 11.795 37.8875 14 36.75C18.375 39.025 23.625 39.025 28 36.75C30.205 37.8875 32.585 38.5 35 38.5H38.5V35H35ZM35 7V5.25C35 4.78587 34.8156 4.34075 34.4874 4.01256C34.1592 3.68437 33.7141 3.5 33.25 3.5H15.75V1.75H10.5V3.5H8.75V7H10.5V22.75H8.75V19.25H5.25V22.75H3.5V26.25H5.25V33.25H7C7.5775 33.25 8.1725 33.1975 8.75 33.11V26.25H17.5V32.6375C18.6375 32.9875 19.8275 33.1625 21 33.1625V26.25H22.75V22.75H21V19.25H17.5V22.75H15.75V7H29.75V15.085C28.9275 15.3825 28.3325 16.1525 28.3325 17.08C28.3325 17.85 28.7525 18.55 29.4 18.935V21H30.485C31.08 21 31.5525 21.49 31.5525 22.085C31.5525 22.68 31.08 23.17 30.485 23.17C30.1 23.17 29.75 22.96 29.54 22.6275C29.4701 22.5066 29.377 22.4008 29.2661 22.316C29.1552 22.2312 29.0287 22.1691 28.8937 22.1334C28.7588 22.0976 28.6181 22.0888 28.4797 22.1075C28.3414 22.1263 28.2081 22.1721 28.0875 22.2425C27.5625 22.5225 27.3875 23.1875 27.685 23.7125C28.2625 24.6925 29.33 25.3225 30.485 25.3225C32.2525 25.3225 33.705 23.87 33.705 22.085C33.705 20.72 32.83 19.495 31.5525 19.04V18.935C32.2175 18.55 32.6375 17.85 32.6375 17.08C32.6375 16.275 32.165 15.5925 31.5 15.225V7H35ZM14 20.405L12.25 22.155V19.67L14 17.92V20.405ZM14 15.2425L12.25 16.9925V14.5075L14 12.7575V15.2425ZM12.25 11.7425V9.2575L14 7.5075V9.9925L12.25 11.7425Z" fill="black"/>
</svg>
