<svg width="42" height="42" viewBox="0 0 42 42" fill="none" xmlns="http://www.w3.org/2000/svg">
<g clip-path="url(#clip0_35_91)">
<path d="M21.4725 18.494C21.473 19.0249 21.3689 19.5507 21.1661 20.0413C20.9634 20.5319 20.666 20.9778 20.291 21.3535C19.9159 21.7292 19.4705 22.0274 18.9802 22.231C18.4899 22.4345 17.9644 22.5396 17.4335 22.54C16.9026 22.5396 16.3771 22.4345 15.8868 22.231C15.3965 22.0274 14.9511 21.7292 14.576 21.3535C14.201 20.9778 13.9036 20.5319 13.7009 20.0413C13.4981 19.5507 13.394 19.0249 13.3945 18.494C13.3936 17.6092 13.5669 16.7329 13.9047 15.9152C14.2424 15.0974 14.7379 14.3541 15.3629 13.7278C15.9879 13.1016 16.7301 12.6045 17.5472 12.2651C18.3643 11.9256 19.2402 11.7504 20.125 11.7495C21.0098 11.7504 21.8857 11.9256 22.7028 12.2651C23.5199 12.6045 24.2621 13.1016 24.8871 13.7278C25.5121 14.3541 26.0076 15.0974 26.3453 15.9152C26.6831 16.7329 26.8564 17.6092 26.8555 18.494C26.8569 19.7327 26.6143 20.9596 26.1415 22.1045C25.6688 23.2494 24.9751 24.29 24.1002 25.1669C23.2253 26.0438 22.1862 26.7397 21.0424 27.215C19.8985 27.6903 18.6722 27.9356 17.4335 27.937C16.1947 27.9359 14.9682 27.6907 13.8241 27.2155C12.68 26.7403 11.6408 26.0444 10.7657 25.1675C9.89056 24.2906 9.19677 23.2499 8.7239 22.1049C8.25104 20.9598 8.00837 19.7329 8.00975 18.494C8.00975 11.788 13.4348 6.35253 20.125 6.35253C26.8152 6.35253 32.2403 11.788 32.2403 18.494C32.2403 26.6893 25.6112 33.3323 17.4335 33.3323C9.254 33.3323 2.625 26.6893 2.625 18.4923C2.625 8.80778 10.4598 0.957275 20.125 0.957275C29.7902 0.957275 37.625 8.80778 37.625 18.4923V36.6048L37.0422 37.212C35.8907 38.409 35.3185 40.0995 35 41.762C34.6798 40.0995 34.1093 38.409 32.9578 37.212L32.375 36.6048V28.0823M32.375 32.4573H37.625" stroke="black" stroke-width="2"/>
</g>
<defs>
<clipPath id="clip0_35_91">
<rect width="42" height="42" fill="white"/>
</clipPath>
</defs>
</svg>
