<svg width="42" height="42" viewBox="0 0 42 42" fill="none" xmlns="http://www.w3.org/2000/svg">
<path d="M25.1733 1.49463C25.1347 1.49447 25.0966 1.49578 25.0579 1.49709C25.045 1.4975 25.0322 1.49906 25.0194 1.49955C24.888 1.50394 24.757 1.51682 24.6273 1.53811C24.3311 1.58708 24.0522 1.67756 23.794 1.80225L4.06826 9.84886C3.99295 9.88331 3.91995 9.9208 3.84776 9.95903C3.7987 9.98511 3.74932 10.0107 3.70174 10.0386C2.57816 10.6678 1.82175 11.8298 1.71757 13.1275C1.71281 13.1796 1.70986 13.2317 1.70732 13.2839C1.67618 13.8999 1.79308 14.5143 2.04824 15.0758C2.94304 17.0493 5.28552 17.9131 7.31875 16.9959L7.32638 16.9935L26.3627 7.46224L26.3755 7.45445L26.3885 7.44928C28.0033 6.71715 28.71 4.87055 28.0009 3.3067C27.4857 2.17057 26.3668 1.49627 25.1733 1.49438V1.49463ZM25.1962 3.03009C25.9283 3.05536 26.5532 3.58544 26.678 4.33997C26.8205 5.20212 26.2508 5.99946 25.3885 6.14219C24.5262 6.28476 23.7315 5.71481 23.5889 4.85266C23.4463 3.99051 24.0161 3.19317 24.8784 3.0506C24.9861 3.03272 25.0917 3.0264 25.1962 3.03009ZM29.039 7.10852C28.5663 7.83483 27.8901 8.44292 27.0473 8.83118C27.0384 8.83528 27.0304 8.84004 27.0215 8.84397L25.6705 9.52073L30.39 17.5522C30.9716 16.5868 32.0008 15.9848 33.1019 15.9243C33.2323 15.9171 33.3628 15.9185 33.4943 15.9267L29.039 7.10852ZM5.57033 11.0767C5.61004 11.0763 5.64908 11.0779 5.68829 11.0793C6.78694 11.1185 7.7289 11.9174 7.91593 13.0481C8.12971 14.3401 7.2701 15.544 5.97795 15.7577C4.68579 15.9715 3.48206 15.1092 3.26845 13.8172C3.0546 12.5252 3.91675 11.3239 5.2089 11.1102C5.32837 11.09 5.44919 11.0788 5.57033 11.0768V11.0767ZM10.5076 17.1138L9.12844 17.806L9.76943 19.5799L5.60388 18.9056L5.59863 18.8903C5.00644 18.885 4.41885 18.7855 3.85793 18.5955L8.73879 31.9948L8.70557 32.0591L8.76709 32.0744L10.1539 35.8811C10.5322 35.4882 10.9499 35.1326 11.4024 34.825L10.5591 32.5103L14.7939 33.5408H14.7964C15.1214 33.4994 15.4526 33.4768 15.7886 33.4768C16.0063 33.4768 16.221 33.4873 16.4345 33.5049L10.5077 17.114L10.5076 17.1138ZM33.2661 17.4496C33.2362 17.4496 33.2063 17.4506 33.1766 17.4521C32.4612 17.4877 31.8099 17.9429 31.5487 18.6645C31.2006 19.627 31.6887 20.6672 32.651 21.0153C33.6135 21.3634 34.6562 20.8754 35.0045 19.913C35.3525 18.9505 34.8644 17.9105 33.902 17.5623C33.6982 17.488 33.4831 17.4498 33.2662 17.4495L33.2661 17.4496ZM36.4783 18.2544C36.7021 18.943 36.7085 19.7075 36.4449 20.436C36.4072 20.5388 36.3645 20.6398 36.317 20.7385L38.6086 21.1487L38.2497 25.3528L36.6579 26.3012L37.4423 27.6189L39.3725 26.4678L39.711 26.2679L39.7443 25.8755L40.2622 19.8104L40.339 18.9261L40.1725 18.9363L36.4784 18.2544H36.4783ZM29.9081 19.2696L26.2987 21.4664L26.291 21.4691V21.4715L26.2858 21.474L26.2987 21.487L26.6654 22.2663L29.2492 27.7777L29.4159 28.134L29.8031 28.2057L32.0102 28.6159L32.292 27.1086L30.4693 26.7701L28.7083 23.012L30.9102 21.6842C30.2728 21.0495 29.9055 20.1754 29.9079 19.2694L29.9081 19.2696ZM6.20607 20.5566L9.08997 21.0231L7.56476 24.2916L6.20599 20.5567L6.20607 20.5566ZM10.505 21.6153L12.0098 25.7808L8.90802 25.0376L10.5052 21.6153H10.505ZM8.36456 26.4833L11.2611 27.1781L9.70003 30.1567L8.36456 26.4833ZM12.7096 27.7162L14.1938 31.8153L10.9716 31.0336L12.7097 27.7162H12.7096ZM15.7882 35.0094C12.5652 35.0094 9.92504 37.415 9.54877 40.5338H11.3945C11.7603 38.442 13.5954 36.8399 15.7883 36.8399C17.981 36.8399 19.8139 38.442 20.1794 40.5338H22.0251C21.6489 37.415 19.0113 35.0095 15.7883 35.0095L15.7882 35.0094ZM15.7882 38.3727C14.4302 38.3727 13.3092 39.2869 12.9736 40.5338H18.6004C18.2648 39.2869 17.1464 38.3728 15.7884 38.3728L15.7882 38.3727Z" fill="black"/>
</svg>
