<svg width="42" height="42" viewBox="0 0 42 42" fill="none" xmlns="http://www.w3.org/2000/svg">
<path d="M18.977 33.1415C26.7998 33.1415 33.1415 26.7998 33.1415 18.977C33.1415 11.1542 26.7998 4.8125 18.977 4.8125C11.1542 4.8125 4.8125 11.1542 4.8125 18.977C4.8125 26.7998 11.1542 33.1415 18.977 33.1415Z" stroke="black" stroke-linecap="round" stroke-linejoin="round"/>
<path d="M28.9922 28.9922L37.1874 37.1875" stroke="black" stroke-linecap="round" stroke-linejoin="round"/>
<g clip-path="url(#clip0_35_122)">
<path d="M17.378 10.7985L11.1458 14.2227H12.4145L16.9456 11.7331L16.4086 14.2227H17.0336L17.4268 12.3999L17.8914 14.2227H18.5219L17.8618 11.633L24.7504 14.2227H26.4865L17.378 10.7985ZM10.9866 14.8337V15.852H26.6687V14.8337H10.9866ZM12.0728 16.463V17.4813H14.1773V16.463H12.0728ZM16.9607 16.463V18.0245H17.979V16.463H16.9607ZM18.59 16.463V18.0245H19.2442L19.6083 17.6603V16.463H18.59ZM25.0394 16.463V21.2731C25.1367 21.2349 25.2403 21.2152 25.3449 21.2152C25.4523 21.2152 25.5553 21.2359 25.6504 21.2731V16.463H25.0394ZM16.9607 18.6354V26.8499H17.979V18.6354H16.9607ZM25.3449 21.8262C25.21 21.8262 25.1073 21.9289 25.1073 22.0638C25.1073 22.1986 25.21 22.3014 25.3449 22.3014C25.4797 22.3014 25.5825 22.1986 25.5825 22.0638C25.5825 21.9289 25.4797 21.8262 25.3449 21.8262ZM24.6527 22.5514L24.0953 23.3876H24.8295L25.1602 22.8916C24.9525 22.8446 24.7726 22.7205 24.6527 22.5514ZM26.0371 22.5514C25.9171 22.7205 25.7372 22.8446 25.5296 22.8916L25.8603 23.3876H26.5945L26.0371 22.5514ZM24.0211 23.9986V25.0169H26.6687V23.9986H24.0211ZM16.3497 24.8302L14.2995 26.3679L14.6661 26.8567L16.3497 25.594V24.8302ZM18.59 24.8302V25.594L20.2736 26.8567L20.6402 26.3679L18.59 24.8302Z" fill="black"/>
</g>
<defs>
<clipPath id="clip0_35_122">
<rect width="17.3793" height="17.3793" fill="white" transform="translate(10.1379 10.1379)"/>
</clipPath>
</defs>
</svg>
