<svg width="36" height="28" viewBox="0 0 36 28" fill="none" xmlns="http://www.w3.org/2000/svg">
<path d="M8.25 22.75C8.25 23.6783 7.88125 24.5685 7.22487 25.2249C6.5685 25.8813 5.67826 26.25 4.75 26.25C3.82174 26.25 2.9315 25.8813 2.27513 25.2249C1.61875 24.5685 1.25 23.6783 1.25 22.75C1.25 21.8217 1.61875 20.9315 2.27513 20.2751C2.9315 19.6187 3.82174 19.25 4.75 19.25C5.67826 19.25 6.5685 19.6187 7.22487 20.2751C7.88125 20.9315 8.25 21.8217 8.25 22.75ZM8.25 22.75H17M17 22.75C17 23.6783 17.3687 24.5685 18.0251 25.2249C18.6815 25.8813 19.5717 26.25 20.5 26.25C21.4283 26.25 22.3185 25.8813 22.9749 25.2249C23.6313 24.5685 24 23.6783 24 22.75C24 21.8217 23.6313 20.9315 22.9749 20.2751C22.3185 19.6187 21.4283 19.25 20.5 19.25C19.5717 19.25 18.6815 19.6187 18.0251 20.2751C17.3687 20.9315 17 21.8217 17 22.75Z" stroke="black" stroke-width="2" stroke-linecap="round" stroke-linejoin="round"/>
<path d="M1.25 22.75V12.25H24M24 12.25V22.75M24 12.25L18.75 1.75H11.75V12.25M4.75 12.25V5.25H11.75M34.5 19.25H29.25V1.75M24 15.75H29.25" stroke="black" stroke-width="2" stroke-linecap="round" stroke-linejoin="round"/>
</svg>
