<svg width="42" height="42" viewBox="0 0 42 42" fill="none" xmlns="http://www.w3.org/2000/svg">
<path d="M5.25 36.75C4.2875 36.75 3.46325 36.407 2.77725 35.721C2.09125 35.035 1.74884 34.2113 1.75 33.25V24.5C1.75 23.5375 2.093 22.7133 2.779 22.0273C3.465 21.3413 4.28867 20.9988 5.25 21V13.5188C4.725 13.1979 4.30209 12.7826 3.98125 12.2728C3.66042 11.7629 3.5 11.172 3.5 10.5V8.75C3.5 7.7875 3.843 6.96325 4.529 6.27725C5.215 5.59125 6.03867 5.24884 7 5.25H15.75C16.7125 5.25 17.5368 5.593 18.2228 6.279C18.9088 6.965 19.2512 7.78867 19.25 8.75V10.5C19.25 11.1708 19.0896 11.7612 18.7688 12.271C18.4479 12.7808 18.025 13.1973 17.5 13.5205V21H24.5V13.5188C23.975 13.1979 23.5521 12.7826 23.2313 12.2728C22.9104 11.7629 22.75 11.172 22.75 10.5V8.75C22.75 7.7875 23.093 6.96325 23.779 6.27725C24.465 5.59125 25.2887 5.24884 26.25 5.25H35C35.9625 5.25 36.7868 5.593 37.4728 6.279C38.1588 6.965 38.5012 7.78867 38.5 8.75V10.5C38.5 11.1708 38.3396 11.7612 38.0188 12.271C37.6979 12.7808 37.275 13.1973 36.75 13.5205V21C37.7125 21 38.5368 21.343 39.2228 22.029C39.9088 22.715 40.2512 23.5387 40.25 24.5V33.25C40.25 34.2125 39.907 35.0368 39.221 35.7228C38.535 36.4088 37.7113 36.7512 36.75 36.75H5.25ZM26.25 10.5H35V8.75H26.25V10.5ZM7 10.5H15.75V8.75H7V10.5ZM28 21H33.25V14H28V21ZM8.75 21H14V14H8.75V21ZM5.25 33.25H36.75V24.5H5.25V33.25Z" fill="black"/>
</svg>
