<svg width="42" height="42" viewBox="0 0 42 42" fill="none" xmlns="http://www.w3.org/2000/svg">
<path d="M8.75 12.25C7.82174 12.25 6.9315 12.6187 6.27513 13.2751C5.61875 13.9315 5.25 14.8217 5.25 15.75V26.25C5.25 27.1783 5.61875 28.0685 6.27513 28.7249C6.9315 29.3813 7.82174 29.75 8.75 29.75H14V26.25H8.75V15.75H14V12.25H8.75ZM19.25 12.25C18.3217 12.25 17.4315 12.6187 16.7751 13.2751C16.1187 13.9315 15.75 14.8217 15.75 15.75V26.25C15.75 27.1783 16.1187 28.0685 16.7751 28.7249C17.4315 29.3813 18.3217 29.75 19.25 29.75H22.75C23.6783 29.75 24.5685 29.3813 25.2249 28.7249C25.8813 28.0685 26.25 27.1783 26.25 26.25V15.75C26.25 14.8217 25.8813 13.9315 25.2249 13.2751C24.5685 12.6187 23.6783 12.25 22.75 12.25H19.25ZM19.25 15.75H22.75V26.25H19.25V15.75ZM28 18.375V21H33.25V23.625H30.625C29.9288 23.625 29.2611 23.9016 28.7688 24.3938C28.2766 24.8861 28 25.5538 28 26.25V31.5H35.875V28.875H30.625V26.25H33.25C33.9462 26.25 34.6139 25.9734 35.1062 25.4812C35.5984 24.9889 35.875 24.3212 35.875 23.625V21C35.875 20.3038 35.5984 19.6361 35.1062 19.1438C34.6139 18.6516 33.9462 18.375 33.25 18.375H28Z" fill="black"/>
</svg>
