<svg width="29" height="35" viewBox="0 0 29 35" fill="none" xmlns="http://www.w3.org/2000/svg">
<path d="M27.4857 7.05523L17.2094 4.5753L22.29 2.5314C22.6109 2.4013 22.8544 2.17396 22.967 1.89939C23.0796 1.62481 23.052 1.3255 22.8903 1.06729C22.7286 0.809081 22.4461 0.613129 22.1048 0.522542C21.7636 0.431954 21.3916 0.45415 21.0706 0.584249L13.2094 3.74548C9.67635 3.81934 6.31873 4.99999 3.8515 7.03604C1.38426 9.07208 0.00233832 11.8026 0 14.6463V28.8105C0 29.0996 0.142739 29.3769 0.396814 29.5813C0.65089 29.7857 0.99549 29.9006 1.35481 29.9006C1.71412 29.9006 2.05873 29.7857 2.3128 29.5813C2.56688 29.3769 2.70962 29.0996 2.70962 28.8105V24.4502H5.41923V32.0807C5.41923 32.6589 5.70471 33.2135 6.21286 33.6223C6.72101 34.0312 7.41021 34.2609 8.12885 34.2609H18.9673C19.6859 34.2609 20.3751 34.0312 20.8833 33.6223C21.3914 33.2135 21.6769 32.6589 21.6769 32.0807V14.6395C21.6742 13.0945 20.9929 11.6001 19.7533 10.4202C18.5138 9.24036 16.7958 8.451 14.9029 8.19164V6.29354L26.7066 9.14273C26.8783 9.18773 27.0595 9.20466 27.2394 9.19252C27.4193 9.18039 27.5944 9.13944 27.7544 9.07208C27.9144 9.00472 28.056 8.91232 28.171 8.80029C28.2859 8.68826 28.3719 8.55887 28.4238 8.41973C28.4757 8.28059 28.4926 8.1345 28.4733 7.99005C28.4541 7.8456 28.3991 7.7057 28.3117 7.57858C28.2243 7.45146 28.1062 7.33967 27.9644 7.2498C27.8225 7.15993 27.6597 7.09377 27.4857 7.05523ZM2.70962 22.27V14.6395C2.7129 12.5164 3.67761 10.467 5.4232 8.87493C7.16879 7.28283 9.57562 6.25709 12.1933 5.98968V8.19164C10.3004 8.451 8.5824 9.24036 7.34283 10.4202C6.10327 11.6001 5.42194 13.0945 5.41923 14.6395V22.27H2.70962ZM18.9673 32.0807H8.12885V24.4502H18.9673V32.0807ZM18.9673 14.6395V22.27H8.12885V14.6395C8.12885 13.483 8.6998 12.374 9.7161 11.5562C10.7324 10.7385 12.1108 10.2791 13.5481 10.2791C14.9853 10.2791 16.3637 10.7385 17.38 11.5562C18.3964 12.374 18.9673 13.483 18.9673 14.6395Z" fill="black"/>
</svg>
