<svg width="42" height="42" viewBox="0 0 42 42" fill="none" xmlns="http://www.w3.org/2000/svg">
<path d="M30.7617 1.3125V17.6367H32.2383V16.4883H36.0117V17.6367H37.4883V1.3125H36.0117V4.51172H32.2383V1.3125H30.7617ZM32.2383 5.98828H36.0117V9.76172H32.2383V5.98828ZM32.2383 11.2383H36.0117V15.0117H32.2383V11.2383ZM2.05078 19.1133V22.8867H39.9492V19.1133H2.05078ZM4.51172 24.3633V40.6875H5.98828V37.4883H9.76172V40.6875H11.2383V24.3633H9.76172V25.5117H5.98828V24.3633H4.51172ZM5.98828 26.9883H9.76172V30.7617H5.98828V26.9883ZM5.98828 32.2383H9.76172V36.0117H5.98828V32.2383Z" fill="black"/>
</svg>
